<svg width="34" height="34" viewBox="0 0 34 34" fill="none" xmlns="http://www.w3.org/2000/svg">
<rect width="34" height="34" fill="white"/>
<path fill-rule="evenodd" clip-rule="evenodd" d="M16.9996 4.25001C11.9264 4.25001 7.64961 8.72253 7.64961 14.45C7.64961 17.3099 8.88171 20.2404 10.5793 22.897C12.2664 25.5373 14.3375 27.7896 15.8435 29.2664C16.501 29.9111 17.4983 29.9111 18.1557 29.2664C19.6617 27.7896 21.7328 25.5373 23.42 22.897C25.1175 20.2404 26.3496 17.3099 26.3496 14.45C26.3496 8.72253 22.0728 4.25001 16.9996 4.25001ZM5.09961 14.45C5.09961 7.50256 10.3368 1.70001 16.9996 1.70001C23.6624 1.70001 28.8996 7.50256 28.8996 14.45C28.8996 18.0048 27.3874 21.4239 25.5687 24.27C23.7396 27.1325 21.5227 29.5362 19.9411 31.0871C18.292 32.7042 15.7072 32.7042 14.0581 31.0871C12.4765 29.5362 10.2596 27.1325 8.43048 24.27C6.61183 21.4239 5.09961 18.0048 5.09961 14.45ZM16.9996 11.0572C15.5913 11.0572 14.4496 12.1989 14.4496 13.6072C14.4496 15.0156 15.5913 16.1572 16.9996 16.1572C18.4079 16.1572 19.5496 15.0156 19.5496 13.6072C19.5496 12.1989 18.4079 11.0572 16.9996 11.0572ZM11.8996 13.6072C11.8996 10.7906 14.183 8.50722 16.9996 8.50722C19.8163 8.50722 22.0996 10.7906 22.0996 13.6072C22.0996 16.4239 19.8163 18.7072 16.9996 18.7072C14.183 18.7072 11.8996 16.4239 11.8996 13.6072Z" fill="#32A5EB"/>
</svg>
