<svg width="215" height="20" viewBox="0 0 215 20" fill="none" xmlns="http://www.w3.org/2000/svg">
<path d="M2.81625 12.904V16H1.47225V7.6H5.19225C5.99225 7.6 6.66025 7.852 7.19625 8.356C7.74025 8.86 8.01225 9.492 8.01225 10.252C8.01225 11.012 7.74025 11.644 7.19625 12.148C6.66025 12.652 5.99225 12.904 5.19225 12.904H2.81625ZM5.19225 8.848H2.81625V11.656H5.19225C5.59225 11.656 5.92825 11.524 6.20025 11.26C6.47225 10.988 6.60825 10.652 6.60825 10.252C6.60825 9.852 6.47225 9.52 6.20025 9.256C5.92825 8.984 5.59225 8.848 5.19225 8.848ZM12.0595 9.604C12.8675 9.604 13.5595 9.88 14.1355 10.432V9.76H15.3835V16H14.1355V15.328C13.5595 15.88 12.8675 16.156 12.0595 16.156C11.1875 16.156 10.4555 15.844 9.86353 15.22C9.27953 14.604 8.98753 13.824 8.98753 12.88C8.98753 11.936 9.27953 11.156 9.86353 10.54C10.4555 9.916 11.1875 9.604 12.0595 9.604ZM12.1915 10.852C11.6555 10.852 11.2035 11.048 10.8355 11.44C10.4675 11.816 10.2835 12.296 10.2835 12.88C10.2835 13.456 10.4675 13.94 10.8355 14.332C11.2115 14.716 11.6635 14.908 12.1915 14.908C12.7355 14.908 13.1915 14.716 13.5595 14.332C13.9275 13.94 14.1115 13.456 14.1115 12.88C14.1115 12.296 13.9275 11.816 13.5595 11.44C13.1915 11.048 12.7355 10.852 12.1915 10.852ZM16.509 14.356L17.769 14.032C18.001 14.656 18.509 14.968 19.293 14.968C19.725 14.968 20.085 14.876 20.373 14.692C20.669 14.508 20.817 14.28 20.817 14.008C20.817 13.808 20.741 13.644 20.589 13.516C20.445 13.38 20.261 13.312 20.037 13.312H18.477V12.268H19.965C20.173 12.268 20.345 12.208 20.481 12.088C20.625 11.968 20.697 11.82 20.697 11.644C20.697 11.404 20.565 11.204 20.301 11.044C20.037 10.876 19.709 10.792 19.317 10.792C18.533 10.792 18.029 11.104 17.805 11.728L16.545 11.404C16.729 10.844 17.073 10.404 17.577 10.084C18.089 9.764 18.689 9.604 19.377 9.604C20.137 9.604 20.761 9.784 21.249 10.144C21.745 10.496 21.993 10.944 21.993 11.488C21.993 12.008 21.757 12.432 21.285 12.76C21.837 13.096 22.113 13.568 22.113 14.176C22.113 14.752 21.849 15.224 21.321 15.592C20.785 15.968 20.121 16.156 19.329 16.156C18.625 16.156 18.021 15.996 17.517 15.676C17.021 15.356 16.685 14.916 16.509 14.356ZM24.5389 18.7H23.2909V9.76H24.5389V10.432C25.1149 9.88 25.8069 9.604 26.6149 9.604C27.4869 9.604 28.2189 9.916 28.8109 10.54C29.3949 11.156 29.6869 11.936 29.6869 12.88C29.6869 13.824 29.3949 14.604 28.8109 15.22C28.2189 15.844 27.4869 16.156 26.6149 16.156C25.8069 16.156 25.1149 15.88 24.5389 15.328V18.7ZM26.4709 10.852C25.9349 10.852 25.4829 11.048 25.1149 11.44C24.7469 11.816 24.5629 12.296 24.5629 12.88C24.5629 13.456 24.7469 13.94 25.1149 14.332C25.4829 14.716 25.9349 14.908 26.4709 14.908C27.0069 14.908 27.4629 14.716 27.8389 14.332C28.2069 13.94 28.3909 13.456 28.3909 12.88C28.3909 12.296 28.2069 11.816 27.8389 11.44C27.4709 11.048 27.0149 10.852 26.4709 10.852ZM33.6923 9.604C34.5003 9.604 35.1923 9.88 35.7683 10.432V9.76H37.0163V16H35.7683V15.328C35.1923 15.88 34.5003 16.156 33.6923 16.156C32.8203 16.156 32.0883 15.844 31.4963 15.22C30.9123 14.604 30.6203 13.824 30.6203 12.88C30.6203 11.936 30.9123 11.156 31.4963 10.54C32.0883 9.916 32.8203 9.604 33.6923 9.604ZM33.8243 10.852C33.2883 10.852 32.8363 11.048 32.4683 11.44C32.1003 11.816 31.9163 12.296 31.9163 12.88C31.9163 13.456 32.1003 13.94 32.4683 14.332C32.8443 14.716 33.2963 14.908 33.8243 14.908C34.3683 14.908 34.8243 14.716 35.1923 14.332C35.5603 13.94 35.7443 13.456 35.7443 12.88C35.7443 12.296 35.5603 11.816 35.1923 11.44C34.8243 11.048 34.3683 10.852 33.8243 10.852ZM38.2738 11.488C38.2738 10.104 38.5818 9.052 39.1978 8.332C39.8218 7.612 40.7858 7.188 42.0898 7.06C42.6978 6.988 43.4218 6.916 44.2618 6.844V8.092C43.6378 8.148 42.9258 8.224 42.1258 8.32C41.2538 8.416 40.6058 8.684 40.1818 9.124C39.7658 9.564 39.5458 10.184 39.5218 10.984C39.7458 10.56 40.0578 10.224 40.4578 9.976C40.8658 9.728 41.3298 9.604 41.8498 9.604C42.7378 9.604 43.4858 9.92 44.0938 10.552C44.7098 11.192 45.0178 11.976 45.0178 12.904C45.0178 13.824 44.7098 14.6 44.0938 15.232C43.4778 15.848 42.7058 16.156 41.7778 16.156C40.7778 16.156 39.9418 15.764 39.2698 14.98C38.6058 14.196 38.2738 13.032 38.2738 11.488ZM40.4218 11.44C40.0538 11.816 39.8698 12.296 39.8698 12.88C39.8698 13.456 40.0538 13.94 40.4218 14.332C40.7898 14.716 41.2498 14.908 41.8018 14.908C42.3378 14.908 42.7938 14.716 43.1698 14.332C43.5378 13.94 43.7218 13.456 43.7218 12.88C43.7218 12.296 43.5378 11.816 43.1698 11.44C42.8018 11.048 42.3458 10.852 41.8018 10.852C41.2498 10.852 40.7898 11.048 40.4218 11.44ZM49.2245 16.156C48.2885 16.156 47.5085 15.844 46.8845 15.22C46.2605 14.596 45.9485 13.816 45.9485 12.88C45.9485 11.944 46.2605 11.164 46.8845 10.54C47.5085 9.916 48.2885 9.604 49.2245 9.604C50.1605 9.604 50.9405 9.916 51.5645 10.54C52.1965 11.164 52.5125 11.944 52.5125 12.88C52.5125 13.816 52.1965 14.596 51.5645 15.22C50.9405 15.844 50.1605 16.156 49.2245 16.156ZM49.2245 14.908C49.8005 14.908 50.2725 14.716 50.6405 14.332C51.0245 13.94 51.2165 13.456 51.2165 12.88C51.2165 12.304 51.0245 11.824 50.6405 11.44C50.2725 11.048 49.8005 10.852 49.2245 10.852C48.6645 10.852 48.1925 11.048 47.8085 11.44C47.4325 11.832 47.2445 12.312 47.2445 12.88C47.2445 13.448 47.4325 13.932 47.8085 14.332C48.1925 14.716 48.6645 14.908 49.2245 14.908ZM55.1453 16V10.96H52.9373V9.76H58.6013V10.96H56.3933V16H55.1453ZM65.0098 16H63.4738L60.7618 12.772L63.2218 9.76H64.7458L62.2978 12.772L65.0098 16ZM60.7498 9.76V16H59.5018V9.76H60.7498ZM68.3798 9.604C69.1878 9.604 69.8798 9.88 70.4558 10.432V9.76H71.7038V16H70.4558V15.328C69.8798 15.88 69.1878 16.156 68.3798 16.156C67.5078 16.156 66.7758 15.844 66.1838 15.22C65.5998 14.604 65.3078 13.824 65.3078 12.88C65.3078 11.936 65.5998 11.156 66.1838 10.54C66.7758 9.916 67.5078 9.604 68.3798 9.604ZM68.5118 10.852C67.9758 10.852 67.5238 11.048 67.1558 11.44C66.7878 11.816 66.6038 12.296 66.6038 12.88C66.6038 13.456 66.7878 13.94 67.1558 14.332C67.5318 14.716 67.9838 14.908 68.5118 14.908C69.0558 14.908 69.5118 14.716 69.8798 14.332C70.2478 13.94 70.4318 13.456 70.4318 12.88C70.4318 12.296 70.2478 11.816 69.8798 11.44C69.5118 11.048 69.0558 10.852 68.5118 10.852ZM82.4128 11.572L81.1528 11.944C80.9928 11.608 80.7568 11.344 80.4448 11.152C80.1328 10.952 79.7768 10.852 79.3768 10.852C78.8168 10.852 78.3448 11.048 77.9608 11.44C77.5848 11.832 77.3968 12.312 77.3968 12.88C77.3968 13.448 77.5848 13.932 77.9608 14.332C78.3448 14.716 78.8168 14.908 79.3768 14.908C79.7768 14.908 80.1328 14.812 80.4448 14.62C80.7568 14.42 80.9928 14.152 81.1528 13.816L82.4128 14.188C82.1648 14.788 81.7688 15.268 81.2248 15.628C80.6888 15.98 80.0728 16.156 79.3768 16.156C78.4408 16.156 77.6608 15.844 77.0368 15.22C76.4128 14.596 76.1008 13.816 76.1008 12.88C76.1008 11.944 76.4128 11.164 77.0368 10.54C77.6608 9.916 78.4408 9.604 79.3768 9.604C80.0728 9.604 80.6888 9.784 81.2248 10.144C81.7688 10.496 82.1648 10.972 82.4128 11.572ZM86.2978 9.604C87.1058 9.604 87.7978 9.88 88.3738 10.432V9.76H89.6218V16H88.3738V15.328C87.7978 15.88 87.1058 16.156 86.2978 16.156C85.4258 16.156 84.6938 15.844 84.1018 15.22C83.5178 14.604 83.2258 13.824 83.2258 12.88C83.2258 11.936 83.5178 11.156 84.1018 10.54C84.6938 9.916 85.4258 9.604 86.2978 9.604ZM86.4298 10.852C85.8938 10.852 85.4418 11.048 85.0738 11.44C84.7058 11.816 84.5218 12.296 84.5218 12.88C84.5218 13.456 84.7058 13.94 85.0738 14.332C85.4498 14.716 85.9018 14.908 86.4298 14.908C86.9738 14.908 87.4298 14.716 87.7978 14.332C88.1658 13.94 88.3498 13.456 88.3498 12.88C88.3498 12.296 88.1658 11.816 87.7978 11.44C87.4298 11.048 86.9738 10.852 86.4298 10.852ZM91.1073 16V9.76H92.3553V13.924L95.8833 9.76H96.9273V16H95.6793V11.86L92.1513 16H91.1073ZM91.9593 7.144H93.0033C93.0033 7.416 93.0993 7.644 93.2913 7.828C93.4913 8.012 93.7393 8.104 94.0353 8.104C94.3153 8.104 94.5513 8.012 94.7433 7.828C94.9433 7.644 95.0433 7.416 95.0433 7.144H96.0873C96.0873 7.712 95.8913 8.18 95.4993 8.548C95.1073 8.916 94.6193 9.1 94.0353 9.1C93.4353 9.1 92.9393 8.916 92.5473 8.548C92.1553 8.18 91.9593 7.712 91.9593 7.144ZM100.052 16V10.96H97.8435V9.76H103.508V10.96H101.3V16H100.052ZM106.935 9.604C107.743 9.604 108.435 9.88 109.011 10.432V9.76H110.259V16H109.011V15.328C108.435 15.88 107.743 16.156 106.935 16.156C106.063 16.156 105.331 15.844 104.739 15.22C104.155 14.604 103.863 13.824 103.863 12.88C103.863 11.936 104.155 11.156 104.739 10.54C105.331 9.916 106.063 9.604 106.935 9.604ZM107.067 10.852C106.531 10.852 106.079 11.048 105.711 11.44C105.343 11.816 105.159 12.296 105.159 12.88C105.159 13.456 105.343 13.94 105.711 14.332C106.087 14.716 106.539 14.908 107.067 14.908C107.611 14.908 108.067 14.716 108.435 14.332C108.803 13.94 108.987 13.456 108.987 12.88C108.987 12.296 108.803 11.816 108.435 11.44C108.067 11.048 107.611 10.852 107.067 10.852Z" fill="#162137"/>
<g clip-path="url(#clip0_610_16894)">
<path d="M209.989 12.496C211.383 10.4134 212.815 8.33066 214.209 6.24796C214.473 6.24796 214.699 6.24796 215 6.24796C214.736 6.61335 214.51 6.97873 214.247 7.34412C212.966 9.24412 211.685 11.1076 210.441 13.0076C210.366 13.1172 210.366 13.2268 210.366 13.3364C210.366 14.6884 210.366 16.0403 210.366 17.3557C210.366 17.4287 210.366 17.5384 210.366 17.648C210.14 17.648 209.952 17.648 209.688 17.648C209.688 17.5749 209.688 17.4653 209.688 17.3922C209.688 16.0403 209.688 14.7249 209.688 13.373C209.688 13.1903 209.612 13.0076 209.537 12.8614C208.068 10.7057 206.598 8.51335 205.129 6.35758C205.091 6.32104 205.091 6.2845 205.054 6.21143C205.317 6.21143 205.543 6.21143 205.845 6.21143C207.164 8.33066 208.558 10.4134 209.989 12.496Z" fill="#162137"/>
<path d="M209.989 1.75391C210.818 1.75391 211.496 2.4116 211.496 3.21544C211.496 4.01929 210.818 4.67698 209.989 4.67698C209.16 4.67698 208.482 4.01929 208.482 3.21544C208.444 2.4116 209.16 1.75391 209.989 1.75391ZM209.951 2.33852C209.461 2.33852 209.085 2.74044 209.047 3.21544C209.047 3.69044 209.424 4.09237 209.951 4.09237C210.441 4.09237 210.818 3.72698 210.855 3.21544C210.855 2.70391 210.479 2.33852 209.951 2.33852Z" fill="#162137"/>
<path d="M197.933 17.648C197.67 17.648 197.481 17.648 197.218 17.648C197.218 14.0673 197.218 10.4865 197.218 6.8692C195.748 6.8692 194.279 6.8692 192.81 6.8692C192.81 6.64997 192.81 6.43074 192.81 6.24805C195.861 6.24805 198.951 6.24805 202.04 6.24805C202.153 6.46728 202.304 6.64997 202.417 6.8692C200.947 6.8692 199.365 6.8692 197.896 6.8692C197.933 10.523 197.933 14.0673 197.933 17.648Z" fill="#162137"/>
<path d="M187.836 6.24805C188.062 6.24805 188.288 6.24805 188.514 6.24805C188.514 10.048 188.514 13.848 188.514 17.648C188.288 17.648 188.1 17.648 187.836 17.648C187.836 13.8846 187.836 10.0846 187.836 6.24805Z" fill="#162137"/>
<path d="M177.324 17.648C177.324 13.848 177.324 10.048 177.324 6.24805C177.55 6.24805 177.739 6.24805 178.002 6.24805C178.002 9.82882 178.002 13.4096 178.002 17.0269C180.301 17.0269 182.599 17.0269 184.897 17.0269C184.784 17.2461 184.709 17.4654 184.633 17.648C182.222 17.648 179.773 17.648 177.324 17.648Z" fill="#162137"/>
<path d="M174.499 17.6483C174.235 17.6483 174.046 17.6483 173.783 17.6483C172.125 13.9579 170.43 10.2676 168.697 6.46756C166.963 10.231 165.306 13.9579 163.61 17.6483C163.384 17.6483 163.158 17.6483 162.895 17.6483C164.816 13.4099 166.737 9.20794 168.697 4.85986C170.656 9.20794 172.577 13.4464 174.499 17.6483Z" fill="#162137"/>
<path d="M154.455 15.7847C154.568 15.5655 154.643 15.3097 154.756 15.0539C154.907 15.2366 155.02 15.4193 155.096 15.5655C155.811 16.552 156.753 17.0635 157.997 17.027C159.541 16.9539 160.558 15.9674 160.747 14.7982C160.86 14.0308 160.558 13.4462 159.993 12.9347C159.391 12.3866 158.599 12.0578 157.884 11.6924C157.281 11.3635 156.678 11.0712 156.15 10.7058C154.983 9.82892 154.719 8.36738 155.548 7.16161C155.924 6.577 156.527 6.21161 157.205 6.06546C158.26 5.80969 159.24 5.99238 160.144 6.577C160.37 6.75969 160.483 6.90584 160.558 7.08854C160.634 7.34431 160.709 7.56354 160.785 7.85584C160.709 7.78277 160.596 7.74623 160.521 7.67315C159.956 7.23469 159.391 6.86931 158.675 6.68661C157.733 6.46738 156.716 6.75969 156.226 7.41738C155.51 8.36738 155.698 9.57315 156.791 10.2674C157.544 10.7424 158.336 11.1078 159.127 11.5097C159.805 11.8385 160.445 12.2405 160.898 12.8251C161.839 14.0308 161.689 15.602 160.558 16.6251C158.825 18.2328 155.774 17.9039 154.53 15.9308C154.53 15.8943 154.493 15.8212 154.455 15.7847Z" fill="#162137"/>
<path d="M147.598 12.2401C147.108 12.2401 146.619 12.2401 146.129 12.2401C146.129 14.0305 146.129 15.8209 146.129 17.6478C145.903 17.6478 145.677 17.6478 145.488 17.6478C145.488 13.8478 145.488 10.0478 145.488 6.21128C145.601 6.21128 145.714 6.21128 145.827 6.21128C146.694 6.21128 147.56 6.17474 148.389 6.24782C150.085 6.39398 151.102 7.52667 151.102 9.1709C151.102 10.7786 150.16 11.8747 148.54 12.1305C148.465 12.1305 148.427 12.1671 148.314 12.1671C149.482 13.994 150.687 15.7844 151.855 17.6113C151.592 17.6113 151.366 17.6113 151.064 17.6113C149.934 15.894 148.766 14.0671 147.598 12.2401ZM146.129 11.5459C146.882 11.5459 147.598 11.619 148.314 11.5459C149.595 11.4363 150.273 10.7421 150.424 9.49974C150.574 8.33051 149.896 7.2709 148.804 6.97859C148.427 6.86898 148.013 6.86898 147.598 6.83244C147.108 6.7959 146.619 6.83244 146.129 6.83244C146.129 8.44013 146.129 10.0478 146.129 11.5459Z" fill="#162137"/>
<path d="M142.625 17.1001C142.55 17.3193 142.475 17.502 142.399 17.7213C140.139 17.7213 136.974 17.7213 134.676 17.7213C134.751 17.502 134.864 17.3193 134.94 17.1001C137.162 17.1001 140.327 17.1001 142.625 17.1001Z" fill="#162137"/>
<path d="M134.601 6.90582C134.676 6.68659 134.751 6.5039 134.827 6.28467C137.087 6.28467 142.475 6.28467 142.475 6.28467C142.475 6.28467 142.286 6.68659 142.211 6.90582C139.95 6.90582 136.861 6.90582 134.601 6.90582Z" fill="#162137"/>
<path d="M134.865 12.2404C134.789 12.0577 134.714 11.8751 134.639 11.6558C136.522 11.6558 139.273 11.6558 141.157 11.6558C141.232 11.8385 141.345 12.0212 141.42 12.2404C139.536 12.2404 136.786 12.2404 134.865 12.2404Z" fill="#162137"/>
<path d="M132.604 6.28467C132.34 6.28467 132.152 6.28467 131.888 6.28467C130.193 10.0116 128.535 13.702 126.802 17.4654C125.069 13.702 123.411 10.0116 121.716 6.28467C121.49 6.28467 121.264 6.28467 121 6.28467C122.921 10.5231 124.843 14.6885 126.802 19.0001C128.761 14.6885 130.683 10.5231 132.604 6.28467Z" fill="#162137"/>
</g>
<defs>
<clipPath id="clip0_610_16894">
<rect width="94" height="19" fill="white" transform="translate(121)"/>
</clipPath>
</defs>
</svg>
